#N canvas 0 22 1103 840 16;
#X obj 65 93 osc~;
#X floatatom 58 44 5 0 0 0 - - -;
#X text 194 44 Frequency;
#X obj 70 202 dac~;
#X obj 70 146 *~ 1;
#X floatatom 118 43 5 0 0 0 - - -;
#X obj 453 129 tgl 15 0 empty empty empty 17 7 0 10 -262144 -1 -1 1
1;
#X msg 454 167 \; pd dsp \$1;
#X msg 126 103 0.5;
#X obj 224 89 vsl 15 128 0 127 0 0 empty empty empty 0 -9 0 10 -262144
-1 -1 0 1;
#X floatatom 226 266 5 0 0 0 - - -;
#X obj 61 506 osc~;
#X floatatom 49 454 5 0 0 0 - - -;
#X text 190 457 Frequency;
#X obj 66 615 dac~;
#X obj 66 559 *~ 1;
#X floatatom 114 456 5 0 0 0 - - -;
#X obj 219 500 vsl 15 80 0 127 0 0 empty empty empty 0 -9 0 10 -262144
-1 -1 0 1;
#X floatatom 219 589 5 0 0 0 - - -;
#X obj 183 669 env~;
#X obj 184 724 - 100;
#X obj 300 624 vu 15 120 empty empty -1 -8 0 10 -66577 -1 1 0;
#X obj 590 533 osc~;
#X obj 589 588 *~ 1;
#X obj 590 655 dac~;
#X msg 589 360 60;
#X msg 696 366 62;
#X msg 789 361 64;
#X text 681 305 C D E;
#X obj 662 436 mtof;
#X obj 661 477 sig~;
#X msg 872 359 0;
#X floatatom 648 255 5 0 0 0 - - -;
#X connect 0 0 4 0;
#X connect 1 0 0 0;
#X connect 4 0 3 1;
#X connect 4 0 3 0;
#X connect 5 0 0 0;
#X connect 6 0 7 0;
#X connect 8 0 4 1;
#X connect 9 0 4 1;
#X connect 9 0 10 0;
#X connect 11 0 15 0;
#X connect 12 0 11 0;
#X connect 15 0 14 1;
#X connect 15 0 14 0;
#X connect 15 0 19 0;
#X connect 16 0 11 0;
#X connect 17 0 15 1;
#X connect 17 0 18 0;
#X connect 19 0 20 0;
#X connect 20 0 21 0;
#X connect 22 0 23 0;
#X connect 23 0 24 0;
#X connect 23 0 24 1;
#X connect 25 0 29 0;
#X connect 26 0 29 0;
#X connect 27 0 29 0;
#X connect 29 0 30 0;
#X connect 30 0 22 0;
#X connect 31 0 29 0;
#X connect 32 0 29 0;
